<svg width="1194" height="744" viewBox="0 0 1194 744" fill="none" xmlns="http://www.w3.org/2000/svg">
<g clip-path="url(#clip0)">
<path d="M1032.06 587.339C1030.51 590.666 1028.97 593.948 1027.43 597.186C1025.04 602.216 1022.67 607.149 1020.34 611.984C1019.3 614.126 1018.26 616.228 1017.25 618.331C1005.79 641.711 995.101 662.39 986.019 679.396C977.778 694.805 965.541 707.716 950.591 716.777C935.641 725.837 918.527 730.713 901.043 730.894L699.091 733.089H696.961L679.648 733.276L664.84 733.435L619.429 733.928H617.591L594.473 734.181H593.767L451.275 735.724L324.085 737.055L309.29 737.215L217.402 738.213H217.296L157.702 738.851H157.063L-31.3724 740.887L-87.7432 741.499C-92.5431 741.554 -97.3419 741.314 -102.112 740.781C-103.737 740.595 -105.362 740.382 -106.973 740.129C-133.263 736.074 -157.37 723.14 -175.276 703.482C-199.526 676.828 -217.171 645.73 -229.023 611.984C-230.737 607.113 -232.335 602.181 -233.817 597.186C-274.847 458.595 -224.828 279.791 -134.805 160.135C-131.032 155.132 -127.197 150.252 -123.3 145.497L-123.206 145.391C-95.5204 111.432 -64.4784 83.0616 -31.4124 62.8884C27.1824 27.0796 92.1027 16.993 155.958 47.0532C209.985 72.496 260.429 84.4589 309.329 87.7057C314.27 88.0251 319.211 88.2646 324.125 88.411C436.294 91.9373 541.418 51.5509 664.867 25.4828C669.781 24.4448 674.708 23.4202 679.675 22.4488C767.74 4.93695 865.434 -4.29802 981.611 15.1167C993.681 17.087 1005.59 19.9333 1017.25 23.6331C1022.37 25.2832 1027.31 27.0574 1032.06 28.9559C1087.51 51.4977 1117.75 93.1482 1130.6 145.338C1131.82 150.182 1132.87 155.11 1133.76 160.122C1156.54 285.659 1089.81 463.732 1032.06 587.339Z" fill="#A034F4" fill-opacity="0.74"/>
<path opacity="0.1" d="M434.514 621.572C433.952 626.789 433.08 631.969 431.905 637.083H562.648V621.572H434.514ZM325.328 709.184L340.831 709.059V670.742C335.514 670.504 330.338 670.267 325.328 670.016V709.184ZM0.324738 621.572V637.083H277.301V621.572H0.324738ZM1185.92 147.983H1082.67V25.9447C1077.69 23.9268 1072.52 22.067 1067.15 20.3652V147.983H713.374V19.068C708.169 20.0863 703.006 21.1603 697.857 22.2483V147.983H340.831V88.2121C335.682 88.0587 330.505 87.8076 325.328 87.4728V147.983H-31.6984V61.5002C-66.3448 82.6466 -98.8703 112.385 -127.88 147.983H-127.977V148.094C-132.07 153.116 -136.089 158.23 -140.033 163.438H-127.977V621.572H-243.791C-242.247 626.807 -240.572 631.978 -238.768 637.083H-127.991V767.672C-122.418 769.376 -116.728 770.676 -110.968 771.563C-109.28 771.828 -107.577 772.052 -105.875 772.247C-100.877 772.806 -95.8484 773.057 -90.8192 773L-31.7543 772.358V637.055H325.328V768.467L340.831 768.299V637.083H697.857V764.519L713.374 764.352V637.083H1067.08V643.737C1068.14 641.533 1069.23 639.329 1070.32 637.083C1072.76 632.015 1075.24 626.845 1077.75 621.572C1079.36 618.187 1080.98 614.746 1082.6 611.25V163.494H1189.23C1188.29 158.203 1187.19 153.032 1185.92 147.983ZM-31.6984 621.572V163.438H325.328V621.572H-31.6984ZM340.859 621.572V163.438H697.857V621.572H340.859ZM1067.11 621.572H713.374V163.438H1067.08L1067.11 621.572Z" fill="black"/>
<path d="M945.308 744.377V762.511L733.327 764.463L731.066 764.505L650.499 765.245L648.574 765.272L624.086 765.482H623.36L474.086 766.863L229.05 769.136H228.84L166.538 769.722L165.868 769.736L-110.968 772.275V751.352L-45.8751 712.295L84.7291 711.207L87.5198 711.193L88.4407 711.179L91.2314 711.137L153.938 710.621L156.743 710.607L157.636 710.593L160.427 710.579L180.533 710.412L181.064 710.398L230.668 709.979H231.073L618.141 706.715L627.616 706.646H628.565L635.792 706.576L688.327 706.143L691.118 706.102L693.699 706.074H695.039L711.378 705.948L714.615 705.906L718.955 705.878L732.56 705.753L754.145 705.572L756.936 705.544L761.792 705.516H762.699L866.945 704.623L945.308 744.377Z" fill="#65617D"/>
<path opacity="0.2" d="M945.308 744.377V762.511L733.327 764.463L731.066 764.505L650.499 765.245L648.574 765.272L624.086 765.482H623.36L474.086 766.863L229.05 769.136H228.84L166.538 769.722L165.868 769.736L-110.968 772.275V751.352L-45.8751 712.295L84.7291 711.207L87.5198 711.193L88.4407 711.179L91.2314 711.137L153.938 710.621L156.743 710.607L157.636 710.593L160.427 710.579L180.533 710.412L181.064 710.398L230.668 709.979H231.073L618.141 706.715L627.616 706.646H628.565L635.792 706.576L688.327 706.143L691.118 706.102L693.699 706.074H695.039L711.378 705.948L714.615 705.906L718.955 705.878L732.56 705.753L754.145 705.572L756.936 705.544L761.792 705.516H762.699L866.945 704.623L945.308 744.377Z" fill="black"/>
<path d="M154.161 674.647V708.808C154.162 710.426 153.704 712.011 152.839 713.379C151.975 714.746 150.74 715.841 149.278 716.535C148.189 717.063 146.999 717.349 145.789 717.372L97.0919 718.404C95.7913 718.436 94.5014 718.163 93.3244 717.609C91.8366 716.928 90.5762 715.833 89.693 714.455C88.8099 713.078 88.3413 711.476 88.343 709.84V674.647H154.161Z" fill="#3F3D56"/>
<path opacity="0.1" d="M154.161 674.647V708.808C154.162 710.426 153.704 712.011 152.839 713.379C151.975 714.746 150.74 715.841 149.278 716.535C148.189 717.063 146.999 717.349 145.789 717.372L97.0919 718.404C95.7913 718.436 94.5014 718.163 93.3244 717.609C91.8366 716.928 90.5762 715.833 89.693 714.455C88.8099 713.078 88.3413 711.476 88.343 709.84V674.647H154.161Z" fill="black"/>
<path d="M156.952 674.647V708.808C156.953 710.426 156.494 712.011 155.63 713.379C154.765 714.746 153.53 715.841 152.068 716.535C150.98 717.063 149.79 717.349 148.58 717.372L99.8825 718.404C98.582 718.436 97.292 718.163 96.1151 717.609C94.6273 716.928 93.3668 715.833 92.4837 714.455C91.6005 713.078 91.1319 711.476 91.1337 709.84V674.647H156.952Z" fill="#3F3D56"/>
<path d="M756.936 674.633H691.118V718.572H756.936V674.633Z" fill="#3F3D56"/>
<path opacity="0.1" d="M756.936 674.633H691.118V718.572H756.936V674.633Z" fill="black"/>
<path d="M754.146 674.633H688.327V718.572H754.146V674.633Z" fill="#3F3D56"/>
<path opacity="0.1" d="M156.938 674.633V681.566L91.1198 683.323V674.633H156.938Z" fill="black"/>
<path d="M273.115 435.704V670.323C273.098 671.755 272.531 673.126 271.531 674.152C270.531 675.177 269.174 675.779 267.743 675.833L0.324786 682.947H0.255036C-1.20111 682.929 -2.59254 682.342 -3.62227 681.313C-4.65201 680.283 -5.2385 678.893 -5.25659 677.437V435.704C-5.2385 434.249 -4.65201 432.858 -3.62227 431.828C-2.59254 430.799 -1.20111 430.213 0.255036 430.195H267.603C269.059 430.213 270.451 430.799 271.48 431.828C272.51 432.858 273.097 434.249 273.115 435.704Z" fill="#65617D"/>
<path opacity="0.1" d="M0.324783 430.195V682.947H0.255033C-1.20111 682.929 -2.59254 682.342 -3.62227 681.313C-4.65201 680.283 -5.2385 678.893 -5.25659 677.437V435.704C-5.2385 434.249 -4.65201 432.858 -3.62227 431.828C-2.59254 430.799 -1.20111 430.213 0.255033 430.195H0.324783Z" fill="black"/>
<path d="M12.5201 445.176H260.194V651.966L12.5201 657.546V445.176Z" fill="#2F0459"/>
<path opacity="0.1" d="M754.146 674.633V683.574L688.327 681.817V674.633H754.146Z" fill="black"/>
<path d="M841.02 435.704V677.437C841.001 678.905 840.405 680.306 839.361 681.337C838.316 682.368 836.907 682.947 835.438 682.947L567.965 675.833C566.533 675.779 565.177 675.177 564.177 674.152C563.177 673.126 562.61 671.755 562.593 670.323V435.704C562.611 434.249 563.197 432.858 564.227 431.828C565.257 430.799 566.648 430.213 568.104 430.195H835.452C836.918 430.198 838.324 430.778 839.366 431.809C840.407 432.84 841.001 434.239 841.02 435.704Z" fill="#65617D"/>
<path opacity="0.1" d="M841.02 435.704V677.437C841.001 678.905 840.405 680.306 839.361 681.337C838.316 682.368 836.907 682.947 835.438 682.947V430.195C836.907 430.194 838.316 430.773 839.361 431.804C840.405 432.835 841.001 434.237 841.02 435.704Z" fill="black"/>
<path d="M823.215 445.176H575.542V651.966L823.215 657.546V445.176Z" fill="#2F0459"/>
<path d="M555.672 435.704V670.323C555.655 671.755 555.088 673.126 554.088 674.152C553.088 675.177 551.732 675.779 550.3 675.833L282.882 682.947C281.414 682.947 280.005 682.368 278.96 681.337C277.915 680.306 277.319 678.905 277.301 677.437V435.704C277.319 434.249 277.905 432.858 278.935 431.828C279.965 430.799 281.356 430.213 282.812 430.195H550.16C551.616 430.213 553.008 430.799 554.038 431.828C555.067 432.858 555.654 434.249 555.672 435.704Z" fill="#65617D"/>
<path d="M295.077 445.176H542.751V651.966L295.077 657.546V445.176Z" fill="#2F0459"/>
<path d="M420.896 487.482C460.452 487.482 492.519 455.426 492.519 415.883C492.519 376.34 460.452 344.284 420.896 344.284C381.339 344.284 349.273 376.34 349.273 415.883C349.273 455.426 381.339 487.482 420.896 487.482Z" fill="#FBBEBE"/>
<path d="M492.532 526.093C492.532 526.093 353.696 542.831 366.951 526.093C371.751 520.039 373.077 502.101 372.812 481.666C372.728 475.458 372.505 469.028 372.184 462.626C370.649 431.938 366.951 401.948 366.951 401.948C366.951 401.948 488.346 344.758 474.393 390.092C468.812 408.407 470.639 434.128 474.881 458.274C476.123 465.318 477.56 472.222 479.067 478.778C482.745 494.769 487.239 510.561 492.532 526.093Z" fill="#FBBEBE"/>
<path d="M447.226 520.415C463.286 517.444 480.295 512.046 495.407 518.267C499.384 519.899 503.039 522.285 507.114 523.651C511.188 525.018 515.653 525.353 519.895 526.316C534.797 529.691 546.881 541.032 554.639 554.213C562.397 567.395 566.416 582.306 570.351 597.064L579.979 633.094C588.351 664.409 596.723 695.989 598.662 728.364C482.105 735.033 365.281 735.699 248.654 730.359C256.245 715.936 264.003 700.634 263.361 684.328C262.719 668.021 253.329 651.938 256.719 635.869C258.882 625.631 265.887 617.192 270.17 607.665C282.38 580.437 272.877 543.794 294.338 523.066C303.994 513.748 318.059 510.219 331.496 510.665C348.631 511.237 366.17 516.579 383.124 519.188C404.835 522.48 425.347 524.433 447.226 520.415Z" fill="#FF6584"/>
<path opacity="0.1" d="M629.876 675.484L629.737 677.479V677.618L629.5 680.826L627.644 706.646L625.397 737.751L624.755 746.511L623.36 765.259V765.496L474.058 766.891L229.05 769.541V770.712H228.854V769.541V769.15L229.482 749.12L230.682 709.979L231.715 676.795L231.812 673.489C231.873 671.494 232.341 669.532 233.186 667.723C234.031 665.915 235.236 664.297 236.727 662.969C238.218 661.642 239.965 660.632 241.859 660.002C243.754 659.371 245.758 659.134 247.747 659.304C254.333 659.861 262.887 660.545 273.115 661.27L277.301 661.577C336.366 665.678 445.523 670.979 555.672 664.367C557.988 664.241 560.318 664.102 562.649 663.935C579.728 662.86 596.793 661.48 613.69 659.75C615.827 659.526 617.986 659.773 620.016 660.474C622.046 661.175 623.898 662.312 625.441 663.805C626.984 665.298 628.181 667.112 628.947 669.118C629.714 671.123 630.031 673.273 629.876 675.414V675.484Z" fill="black"/>
<path d="M229.008 770.712V769.541L474.058 766.876L623.36 765.482H623.779V765.244L625.174 746.497L625.774 738.128L628.062 706.59L629.862 681.622V681.008C629.945 679.857 629.894 678.701 629.709 677.562C629.717 677.516 629.717 677.469 629.709 677.423C629.325 675.069 628.367 672.846 626.918 670.951C625.382 668.981 623.369 667.435 621.069 666.459C618.769 665.483 616.259 665.108 613.774 665.371C596.876 667.101 579.811 668.482 562.732 669.556C560.402 669.723 558.072 669.863 555.756 669.988C445.607 676.53 336.449 671.23 277.384 667.198L273.198 666.892C262.97 666.166 254.417 665.497 247.831 664.925C244.208 664.619 240.6 665.666 237.704 667.863C234.807 670.061 232.828 673.253 232.147 676.823C232.006 677.578 231.922 678.343 231.896 679.111L230.947 710.021L229.65 749.175L229.036 769.206V769.596V770.768L229.008 770.712Z" fill="#3F3D56"/>
<path opacity="0.1" d="M630.295 685.262L628.579 706.646L626.025 738.519L625.383 746.497L623.988 764.366L623.904 765.258V765.495L623.695 767.56L623.848 765.495H623.444L474.142 766.89L229.05 769.541V769.15L229.733 749.12L231.129 709.979L232.022 683.965C232.066 682.485 232.479 681.04 233.225 679.761C233.971 678.481 235.025 677.409 236.291 676.642C237.871 675.674 239.719 675.234 241.566 675.386C244.496 675.623 248.096 675.903 252.296 676.209C259.119 676.712 267.533 677.297 277.329 677.911C295.468 679.055 318.226 680.282 344.305 681.287C416.863 684.077 514.816 685.011 607.858 676.865C612.044 676.502 616.369 676.098 620.597 675.693C622.271 675.526 623.957 675.846 625.453 676.614C625.877 676.825 626.279 677.077 626.653 677.367C627.868 678.247 628.83 679.43 629.444 680.798C629.586 681.071 629.703 681.356 629.793 681.649C630.212 682.805 630.383 684.036 630.295 685.262Z" fill="black"/>
<path opacity="0.1" d="M156.952 704.358V708.808C156.953 710.426 156.494 712.011 155.63 713.379C154.765 714.746 153.53 715.841 152.068 716.535L96.1151 717.609C94.6273 716.928 93.3668 715.833 92.4837 714.455C91.6005 713.078 91.1319 711.476 91.1337 709.84V705.655L156.952 704.358Z" fill="black"/>
<path d="M157.636 719.158L84.7291 720.553V708.459L157.636 707.064V719.158Z" fill="#3F3D56"/>
<path opacity="0.1" d="M157.636 719.158L84.7291 720.553V708.459L157.636 707.064V719.158Z" fill="black"/>
<path d="M160.427 719.158L87.5198 720.553V708.459L160.427 707.064V719.158Z" fill="#3F3D56"/>
<path opacity="0.1" d="M688.746 707.148V711.597C688.745 713.215 689.204 714.8 690.068 716.168C690.933 717.536 692.168 718.631 693.63 719.325L749.583 720.399C751.071 719.717 752.331 718.623 753.214 717.245C754.098 715.868 754.566 714.266 754.564 712.63V708.445L688.746 707.148Z" fill="black"/>
<path opacity="0.1" d="M688.048 721.947L760.955 723.342V711.249L688.048 709.854V721.947Z" fill="black"/>
<path d="M685.257 721.947L758.164 723.342V711.249L685.257 709.854V721.947Z" fill="#3F3D56"/>
<path d="M375.589 437.825C375.7 447.589 371.179 456.795 367.342 465.82C353.371 498.695 347.32 534.39 349.677 570.031C350.696 585.375 353.277 600.718 350.696 615.923C348.114 631.127 338.933 646.289 324.184 650.655C348.645 665.232 381.756 663.697 404.779 646.945C417.044 638.018 426.184 625.561 435.128 613.314C434.066 635.314 427.694 656.731 416.556 675.735C436.688 673.953 456.222 667.964 473.891 658.155C491.561 648.347 506.972 634.938 519.128 618.796C525.142 610.692 530.374 601.793 532.691 591.973C537.002 573.839 530.988 554.994 526.398 536.875C522.561 521.728 519.686 506.353 517.788 490.844C517.188 485.878 516.7 480.773 517.928 475.919C519.323 470.241 523.049 465.443 525.798 460.268C533.612 445.566 533.793 427.767 529.788 411.615C525.784 395.462 517.942 380.565 510.17 365.849C503.947 354.048 497.193 341.703 485.807 334.771C478.691 330.447 470.458 328.647 462.254 326.904L426.854 319.33C419.11 317.67 411.142 316.01 403.314 317.223C390.1 319.288 380.793 328.829 372.617 338.621C366.212 346.237 350.556 360.534 349.454 370.508C348.449 379.7 356.57 395.099 357.952 404.794C359.765 417.348 361.049 413.163 368.138 420.863C372.617 425.633 375.505 431.143 375.589 437.825Z" fill="#3F3D56"/>
<path d="M159.966 465.318H20.9898C20.8048 465.318 20.6273 465.244 20.4965 465.113C20.3656 464.983 20.2921 464.805 20.2921 464.62C20.2921 464.435 20.3656 464.258 20.4965 464.127C20.6273 463.996 20.8048 463.923 20.9898 463.923H159.966C160.151 463.923 160.329 463.996 160.459 464.127C160.59 464.258 160.664 464.435 160.664 464.62C160.664 464.805 160.59 464.983 160.459 465.113C160.329 465.244 160.151 465.318 159.966 465.318Z" fill="#F2F2F2"/>
<path d="M159.966 477.872H20.9898C20.8048 477.872 20.6273 477.798 20.4965 477.667C20.3656 477.537 20.2921 477.359 20.2921 477.174C20.2921 476.989 20.3656 476.812 20.4965 476.681C20.6273 476.55 20.8048 476.477 20.9898 476.477H159.966C160.151 476.477 160.329 476.55 160.459 476.681C160.59 476.812 160.664 476.989 160.664 477.174C160.664 477.359 160.59 477.537 160.459 477.667C160.329 477.798 160.151 477.872 159.966 477.872Z" fill="#F2F2F2"/>
<path d="M159.966 490.425H20.9898C20.8048 490.425 20.6273 490.352 20.4965 490.221C20.3656 490.09 20.2921 489.913 20.2921 489.728C20.2921 489.543 20.3656 489.366 20.4965 489.235C20.6273 489.104 20.8048 489.031 20.9898 489.031H159.966C160.151 489.031 160.329 489.104 160.459 489.235C160.59 489.366 160.664 489.543 160.664 489.728C160.664 489.913 160.59 490.09 160.459 490.221C160.329 490.352 160.151 490.425 159.966 490.425Z" fill="#F2F2F2"/>
</g>
<defs>
<clipPath id="clip0">
<rect x="-259" width="1453" height="773" fill="white"/>
</clipPath>
</defs>
</svg>
