<svg width="1082" height="758" viewBox="0 0 1082 758" fill="none" xmlns="http://www.w3.org/2000/svg">
<rect width="1082" height="758" fill="#E5E5E5"/>
<rect width="1082" height="758" fill="white"/>
<path opacity="0.1" d="M310.828 130H229.664C224.982 130 221.187 133.327 221.187 137.43V148.57C221.187 152.673 224.982 156 229.664 156H310.828C315.51 156 319.305 152.673 319.305 148.57V137.43C319.305 133.327 315.51 130 310.828 130Z" fill="#6C63FF"/>
<path opacity="0.1" d="M413.51 156H332.346C327.664 156 323.869 159.327 323.869 163.43V174.57C323.869 178.673 327.664 182 332.346 182H413.51C418.191 182 421.987 178.673 421.987 174.57V163.43C421.987 159.327 418.191 156 413.51 156Z" fill="#6C63FF"/>
<path opacity="0.1" d="M516.191 182H435.027C430.345 182 426.55 185.327 426.55 189.43V200.57C426.55 204.673 430.345 208 435.027 208H516.191C520.873 208 524.668 204.673 524.668 200.57V189.43C524.668 185.327 520.873 182 516.191 182Z" fill="#6C63FF"/>
<path opacity="0.1" d="M310.828 91H229.664C224.982 91 221.187 94.3265 221.187 98.43V109.57C221.187 113.673 224.982 117 229.664 117H310.828C315.51 117 319.305 113.673 319.305 109.57V98.43C319.305 94.3265 315.51 91 310.828 91Z" fill="#6C63FF"/>
<path opacity="0.1" d="M413.51 117H332.346C327.664 117 323.869 120.327 323.869 124.43V135.57C323.869 139.673 327.664 143 332.346 143H413.51C418.191 143 421.987 139.673 421.987 135.57V124.43C421.987 120.327 418.191 117 413.51 117Z" fill="#6C63FF"/>
<path opacity="0.1" d="M516.191 143H435.027C430.345 143 426.55 146.327 426.55 150.43V161.57C426.55 165.673 430.345 169 435.027 169H516.191C520.873 169 524.668 165.673 524.668 161.57V150.43C524.668 146.327 520.873 143 516.191 143Z" fill="#6C63FF"/>
<path opacity="0.1" d="M630.282 130H549.118C544.436 130 540.641 133.327 540.641 137.43V148.57C540.641 152.673 544.436 156 549.118 156H630.282C634.963 156 638.758 152.673 638.758 148.57V137.43C638.758 133.327 634.963 130 630.282 130Z" fill="#6C63FF"/>
<path opacity="0.1" d="M732.963 156H651.799C647.117 156 643.322 159.327 643.322 163.43V174.57C643.322 178.673 647.117 182 651.799 182H732.963C737.645 182 741.44 178.673 741.44 174.57V163.43C741.44 159.327 737.645 156 732.963 156Z" fill="#6C63FF"/>
<path opacity="0.1" d="M835.644 182H754.48C749.799 182 746.003 185.327 746.003 189.43V200.57C746.003 204.673 749.799 208 754.48 208H835.644C840.326 208 844.121 204.673 844.121 200.57V189.43C844.121 185.327 840.326 182 835.644 182Z" fill="#6C63FF"/>
<path opacity="0.1" d="M630.282 91H549.118C544.436 91 540.641 94.3265 540.641 98.43V109.57C540.641 113.673 544.436 117 549.118 117H630.282C634.963 117 638.758 113.673 638.758 109.57V98.43C638.758 94.3265 634.963 91 630.282 91Z" fill="#6C63FF"/>
<path opacity="0.1" d="M732.963 117H651.799C647.117 117 643.322 120.327 643.322 124.43V135.57C643.322 139.673 647.117 143 651.799 143H732.963C737.645 143 741.44 139.673 741.44 135.57V124.43C741.44 120.327 737.645 117 732.963 117Z" fill="#6C63FF"/>
<path opacity="0.1" d="M835.644 143H754.48C749.799 143 746.003 146.327 746.003 150.43V161.57C746.003 165.673 749.799 169 754.48 169H835.644C840.326 169 844.121 165.673 844.121 161.57V150.43C844.121 146.327 840.326 143 835.644 143Z" fill="#6C63FF"/>
<path opacity="0.1" d="M310.828 39H229.664C224.982 39 221.187 42.3265 221.187 46.43V57.57C221.187 61.6735 224.982 65 229.664 65H310.828C315.51 65 319.305 61.6735 319.305 57.57V46.43C319.305 42.3265 315.51 39 310.828 39Z" fill="#6C63FF"/>
<path opacity="0.1" d="M413.51 65H332.346C327.664 65 323.869 68.3265 323.869 72.43V83.57C323.869 87.6735 327.664 91 332.346 91H413.51C418.191 91 421.987 87.6735 421.987 83.57V72.43C421.987 68.3265 418.191 65 413.51 65Z" fill="#6C63FF"/>
<path opacity="0.1" d="M516.191 91H435.027C430.345 91 426.55 94.3265 426.55 98.43V109.57C426.55 113.673 430.345 117 435.027 117H516.191C520.873 117 524.668 113.673 524.668 109.57V98.43C524.668 94.3265 520.873 91 516.191 91Z" fill="#6C63FF"/>
<path opacity="0.1" d="M310.828 0H229.664C224.982 0 221.187 3.32652 221.187 7.43V18.57C221.187 22.6735 224.982 26 229.664 26H310.828C315.51 26 319.305 22.6735 319.305 18.57V7.43C319.305 3.32652 315.51 0 310.828 0Z" fill="#6C63FF"/>
<path opacity="0.1" d="M413.51 26H332.346C327.664 26 323.869 29.3265 323.869 33.43V44.57C323.869 48.6735 327.664 52 332.346 52H413.51C418.191 52 421.987 48.6735 421.987 44.57V33.43C421.987 29.3265 418.191 26 413.51 26Z" fill="#6C63FF"/>
<path opacity="0.1" d="M516.191 52H435.027C430.345 52 426.55 55.3265 426.55 59.43V70.57C426.55 74.6735 430.345 78 435.027 78H516.191C520.873 78 524.668 74.6735 524.668 70.57V59.43C524.668 55.3265 520.873 52 516.191 52Z" fill="#6C63FF"/>
<path opacity="0.1" d="M630.282 39H549.118C544.436 39 540.641 42.3265 540.641 46.43V57.57C540.641 61.6735 544.436 65 549.118 65H630.282C634.963 65 638.758 61.6735 638.758 57.57V46.43C638.758 42.3265 634.963 39 630.282 39Z" fill="#6C63FF"/>
<path opacity="0.1" d="M732.963 65H651.799C647.117 65 643.322 68.3265 643.322 72.43V83.57C643.322 87.6735 647.117 91 651.799 91H732.963C737.645 91 741.44 87.6735 741.44 83.57V72.43C741.44 68.3265 737.645 65 732.963 65Z" fill="#6C63FF"/>
<path opacity="0.1" d="M835.644 91H754.48C749.799 91 746.003 94.3265 746.003 98.43V109.57C746.003 113.673 749.799 117 754.48 117H835.644C840.326 117 844.121 113.673 844.121 109.57V98.43C844.121 94.3265 840.326 91 835.644 91Z" fill="#6C63FF"/>
<path opacity="0.1" d="M630.282 0H549.118C544.436 0 540.641 3.32652 540.641 7.43V18.57C540.641 22.6735 544.436 26 549.118 26H630.282C634.963 26 638.758 22.6735 638.758 18.57V7.43C638.758 3.32652 634.963 0 630.282 0Z" fill="#6C63FF"/>
<path opacity="0.1" d="M732.963 26H651.799C647.117 26 643.322 29.3265 643.322 33.43V44.57C643.322 48.6735 647.117 52 651.799 52H732.963C737.645 52 741.44 48.6735 741.44 44.57V33.43C741.44 29.3265 737.645 26 732.963 26Z" fill="#6C63FF"/>
<path opacity="0.1" d="M835.644 52H754.48C749.799 52 746.003 55.3265 746.003 59.43V70.57C746.003 74.6735 749.799 78 754.48 78H835.644C840.326 78 844.121 74.6735 844.121 70.57V59.43C844.121 55.3265 840.326 52 835.644 52Z" fill="#6C63FF"/>
<path opacity="0.1" d="M310.828 593H229.664C224.982 593 221.187 596.327 221.187 600.43V611.57C221.187 615.673 224.982 619 229.664 619H310.828C315.51 619 319.305 615.673 319.305 611.57V600.43C319.305 596.327 315.51 593 310.828 593Z" fill="#6C63FF"/>
<path opacity="0.1" d="M413.51 619H332.346C327.664 619 323.869 622.327 323.869 626.43V637.57C323.869 641.673 327.664 645 332.346 645H413.51C418.191 645 421.987 641.673 421.987 637.57V626.43C421.987 622.327 418.191 619 413.51 619Z" fill="#6C63FF"/>
<path opacity="0.1" d="M516.191 645H435.027C430.345 645 426.55 648.327 426.55 652.43V663.57C426.55 667.673 430.345 671 435.027 671H516.191C520.873 671 524.668 667.673 524.668 663.57V652.43C524.668 648.327 520.873 645 516.191 645Z" fill="#6C63FF"/>
<path opacity="0.1" d="M310.828 554H229.664C224.982 554 221.187 557.327 221.187 561.43V572.57C221.187 576.673 224.982 580 229.664 580H310.828C315.51 580 319.305 576.673 319.305 572.57V561.43C319.305 557.327 315.51 554 310.828 554Z" fill="#6C63FF"/>
<path opacity="0.1" d="M413.51 580H332.346C327.664 580 323.869 583.327 323.869 587.43V598.57C323.869 602.673 327.664 606 332.346 606H413.51C418.191 606 421.987 602.673 421.987 598.57V587.43C421.987 583.327 418.191 580 413.51 580Z" fill="#6C63FF"/>
<path opacity="0.1" d="M516.191 606H435.027C430.345 606 426.55 609.327 426.55 613.43V624.57C426.55 628.673 430.345 632 435.027 632H516.191C520.873 632 524.668 628.673 524.668 624.57V613.43C524.668 609.327 520.873 606 516.191 606Z" fill="#6C63FF"/>
<path opacity="0.1" d="M630.282 593H549.118C544.436 593 540.641 596.327 540.641 600.43V611.57C540.641 615.673 544.436 619 549.118 619H630.282C634.963 619 638.758 615.673 638.758 611.57V600.43C638.758 596.327 634.963 593 630.282 593Z" fill="#6C63FF"/>
<path opacity="0.1" d="M732.963 619H651.799C647.117 619 643.322 622.327 643.322 626.43V637.57C643.322 641.673 647.117 645 651.799 645H732.963C737.645 645 741.44 641.673 741.44 637.57V626.43C741.44 622.327 737.645 619 732.963 619Z" fill="#6C63FF"/>
<path opacity="0.1" d="M835.644 645H754.48C749.799 645 746.003 648.327 746.003 652.43V663.57C746.003 667.673 749.799 671 754.48 671H835.644C840.326 671 844.121 667.673 844.121 663.57V652.43C844.121 648.327 840.326 645 835.644 645Z" fill="#6C63FF"/>
<path opacity="0.1" d="M630.282 554H549.118C544.436 554 540.641 557.327 540.641 561.43V572.57C540.641 576.673 544.436 580 549.118 580H630.282C634.963 580 638.758 576.673 638.758 572.57V561.43C638.758 557.327 634.963 554 630.282 554Z" fill="#6C63FF"/>
<path opacity="0.1" d="M732.963 580H651.799C647.117 580 643.322 583.327 643.322 587.43V598.57C643.322 602.673 647.117 606 651.799 606H732.963C737.645 606 741.44 602.673 741.44 598.57V587.43C741.44 583.327 737.645 580 732.963 580Z" fill="#6C63FF"/>
<path opacity="0.1" d="M835.644 606H754.48C749.799 606 746.003 609.327 746.003 613.43V624.57C746.003 628.673 749.799 632 754.48 632H835.644C840.326 632 844.121 628.673 844.121 624.57V613.43C844.121 609.327 840.326 606 835.644 606Z" fill="#6C63FF"/>
<path opacity="0.1" d="M310.828 502H229.664C224.982 502 221.187 505.327 221.187 509.43V520.57C221.187 524.673 224.982 528 229.664 528H310.828C315.51 528 319.305 524.673 319.305 520.57V509.43C319.305 505.327 315.51 502 310.828 502Z" fill="#6C63FF"/>
<path opacity="0.1" d="M413.51 528H332.346C327.664 528 323.869 531.327 323.869 535.43V546.57C323.869 550.673 327.664 554 332.346 554H413.51C418.191 554 421.987 550.673 421.987 546.57V535.43C421.987 531.327 418.191 528 413.51 528Z" fill="#6C63FF"/>
<path opacity="0.1" d="M516.191 554H435.027C430.345 554 426.55 557.327 426.55 561.43V572.57C426.55 576.673 430.345 580 435.027 580H516.191C520.873 580 524.668 576.673 524.668 572.57V561.43C524.668 557.327 520.873 554 516.191 554Z" fill="#6C63FF"/>
<path opacity="0.1" d="M310.828 463H229.664C224.982 463 221.187 466.327 221.187 470.43V481.57C221.187 485.673 224.982 489 229.664 489H310.828C315.51 489 319.305 485.673 319.305 481.57V470.43C319.305 466.327 315.51 463 310.828 463Z" fill="#6C63FF"/>
<path opacity="0.1" d="M413.51 489H332.346C327.664 489 323.869 492.327 323.869 496.43V507.57C323.869 511.673 327.664 515 332.346 515H413.51C418.191 515 421.987 511.673 421.987 507.57V496.43C421.987 492.327 418.191 489 413.51 489Z" fill="#6C63FF"/>
<path opacity="0.1" d="M516.191 515H435.027C430.345 515 426.55 518.327 426.55 522.43V533.57C426.55 537.673 430.345 541 435.027 541H516.191C520.873 541 524.668 537.673 524.668 533.57V522.43C524.668 518.327 520.873 515 516.191 515Z" fill="#6C63FF"/>
<path opacity="0.1" d="M630.282 502H549.118C544.436 502 540.641 505.327 540.641 509.43V520.57C540.641 524.673 544.436 528 549.118 528H630.282C634.963 528 638.758 524.673 638.758 520.57V509.43C638.758 505.327 634.963 502 630.282 502Z" fill="#6C63FF"/>
<path opacity="0.1" d="M732.963 528H651.799C647.117 528 643.322 531.327 643.322 535.43V546.57C643.322 550.673 647.117 554 651.799 554H732.963C737.645 554 741.44 550.673 741.44 546.57V535.43C741.44 531.327 737.645 528 732.963 528Z" fill="#6C63FF"/>
<path opacity="0.1" d="M835.644 554H754.48C749.799 554 746.003 557.327 746.003 561.43V572.57C746.003 576.673 749.799 580 754.48 580H835.644C840.326 580 844.121 576.673 844.121 572.57V561.43C844.121 557.327 840.326 554 835.644 554Z" fill="#6C63FF"/>
<path opacity="0.1" d="M630.282 463H549.118C544.436 463 540.641 466.327 540.641 470.43V481.57C540.641 485.673 544.436 489 549.118 489H630.282C634.963 489 638.758 485.673 638.758 481.57V470.43C638.758 466.327 634.963 463 630.282 463Z" fill="#6C63FF"/>
<path opacity="0.1" d="M732.963 489H651.799C647.117 489 643.322 492.327 643.322 496.43V507.57C643.322 511.673 647.117 515 651.799 515H732.963C737.645 515 741.44 511.673 741.44 507.57V496.43C741.44 492.327 737.645 489 732.963 489Z" fill="#6C63FF"/>
<path opacity="0.1" d="M835.644 515H754.48C749.799 515 746.003 518.327 746.003 522.43V533.57C746.003 537.673 749.799 541 754.48 541H835.644C840.326 541 844.121 537.673 844.121 533.57V522.43C844.121 518.327 840.326 515 835.644 515Z" fill="#6C63FF"/>
<path opacity="0.1" d="M550.338 758C826.639 758 1050.63 741.882 1050.63 722C1050.63 702.118 826.639 686 550.338 686C274.038 686 50.0515 702.118 50.0515 722C50.0515 741.882 274.038 758 550.338 758Z" fill="#6C63FF"/>
<path d="M897.881 611C897.881 661.24 933.842 701.9 978.28 701.9Z" fill="#46455B"/>
<path d="M978.28 701.91C978.28 651.1 1018.42 609.99 1068.01 609.99Z" fill="#6C63FF"/>
<path d="M927.019 615.56C927.019 663.29 949.952 701.91 978.28 701.91Z" fill="#6C63FF"/>
<path d="M978.28 701.91C978.28 636.99 1024.67 584.45 1081.99 584.45Z" fill="#46455B"/>
<path opacity="0.1" d="M974.801 719.27C985.84 719.27 994.789 717.945 994.789 716.31C994.789 714.675 985.84 713.35 974.801 713.35C963.761 713.35 954.812 714.675 954.812 716.31C954.812 717.945 963.761 719.27 974.801 719.27Z" fill="#6C63FF"/>
<path d="M961.372 702.55C961.372 702.55 972.781 702.24 976.204 700.1C979.627 697.96 993.74 695.39 994.595 698.83C995.451 702.27 1011.71 715.94 998.851 716.03C985.993 716.12 968.936 714.27 965.514 712.44C962.091 710.61 961.372 702.55 961.372 702.55Z" fill="#A8A8A8"/>
<path opacity="0.2" d="M999.09 714.83C986.221 714.92 969.187 713.07 965.753 711.24C963.14 709.85 962.102 704.84 961.749 702.54H961.372C961.372 702.54 962.091 710.6 965.525 712.43C968.959 714.26 985.993 716.11 998.862 716.02C1002.58 716.02 1003.86 714.83 1003.79 713.12C1003.28 714.16 1001.92 714.81 999.09 714.83Z" fill="black"/>
<path d="M25.6589 640.36C25.6589 680.36 54.2614 712.68 89.6181 712.68Z" fill="#46455B"/>
<path d="M89.6181 712.68C89.6181 672.26 121.563 639.55 161.005 639.55Z" fill="#6C63FF"/>
<path d="M48.8307 644C48.8307 682 67.0852 712.7 89.6181 712.7Z" fill="#6C63FF"/>
<path d="M89.6181 712.68C89.6181 661.03 126.526 619.23 172.128 619.23Z" fill="#46455B"/>
<path opacity="0.1" d="M86.8457 726.5C95.6293 726.5 102.75 725.443 102.75 724.14C102.75 722.837 95.6293 721.78 86.8457 721.78C78.062 721.78 70.9415 722.837 70.9415 724.14C70.9415 725.443 78.062 726.5 86.8457 726.5Z" fill="#6C63FF"/>
<path d="M76.1668 713.19C76.1668 713.19 85.237 712.94 87.9638 711.19C90.6905 709.44 101.928 707.44 102.602 710.19C103.275 712.94 116.235 723.8 106.024 723.87C95.8132 723.94 82.225 722.47 79.4983 721.02C76.7715 719.57 76.1668 713.19 76.1668 713.19Z" fill="#A8A8A8"/>
<path opacity="0.2" d="M106.173 723C95.9045 723.07 82.3733 721.6 79.6466 720.14C77.5701 719.04 76.7487 715.05 76.4634 713.22H76.1668C76.1668 713.22 76.7373 719.63 79.464 721.09C82.1908 722.55 95.7561 724.01 105.99 723.94C108.945 723.94 109.972 723 109.915 721.63C109.504 722.43 108.375 722.94 106.173 723Z" fill="black"/>
</svg>
